<svg xmlns="http://www.w3.org/2000/svg" width="1200" height="630" viewBox="0 0 1200 630">
  <defs>
    <linearGradient id="bg" x1="0" y1="0" x2="1" y2="1">
      <stop offset="0" stop-color="#EFF6FF"/>
      <stop offset=".58" stop-color="#FFFFFF"/>
      <stop offset="1" stop-color="#F8FAFC"/>
    </linearGradient>
    <linearGradient id="blue" x1="0" y1="0" x2="1" y2="1">
      <stop offset="0" stop-color="#2563EB"/>
      <stop offset="1" stop-color="#1D4ED8"/>
    </linearGradient>
  </defs>
  <rect width="1200" height="630" fill="url(#bg)"/>
  <path d="M0 530h1200" stroke="#DBEAFE" stroke-width="2"/>
  <path d="M90 90h1020v450H90z" fill="#fff" stroke="#E2E8F0" stroke-width="3" rx="36"/>
  <text x="130" y="180" fill="#1E40AF" font-family="Segoe UI, Arial, sans-serif" font-size="34" font-weight="700">Золотой Ключик · Липецк</text>
  <text x="130" y="275" fill="#0F172A" font-family="Segoe UI, Arial, sans-serif" font-size="72" font-weight="800">Вскрытие замков</text>
  <text x="130" y="356" fill="#0F172A" font-family="Segoe UI, Arial, sans-serif" font-size="72" font-weight="800">без повреждений</text>
  <text x="132" y="426" fill="#475569" font-family="Segoe UI, Arial, sans-serif" font-size="34" font-weight="600">Мастер от 15 минут · 24/7 · Цена до начала работ</text>
  <rect x="130" y="470" width="300" height="72" rx="24" fill="url(#blue)"/>
  <text x="170" y="517" fill="#fff" font-family="Segoe UI, Arial, sans-serif" font-size="28" font-weight="800">8 910 254-34-34</text>
  <g transform="translate(790 148)">
    <rect x="0" y="88" width="260" height="235" rx="34" fill="#DBEAFE" stroke="#93C5FD" stroke-width="4"/>
    <path d="M70 88V62a60 60 0 0 1 120 0v26" fill="none" stroke="#2563EB" stroke-width="26" stroke-linecap="round"/>
    <circle cx="130" cy="205" r="34" fill="#2563EB"/>
    <path d="M130 205v58" stroke="#fff" stroke-width="20" stroke-linecap="round"/>
    <path d="M62 376a82 82 0 1 1 59-138l146-146 55 55-34 34-27-27-28 28 28 28-55 55-28-28-71 71a82 82 0 0 1-45 68Z" fill="#10B981" stroke="#047857" stroke-width="6" stroke-linejoin="round"/>
    <circle cx="62" cy="376" r="20" fill="#fff"/>
  </g>
</svg>
